<?xml version="1.0" encoding="UTF-8" standalone="no" ?>
<!DOCTYPE svg PUBLIC "-//W3C//DTD SVG 1.1//EN" "http://www.w3.org/Graphics/SVG/1.1/DTD/svg11.dtd">
<svg xmlns="http://www.w3.org/2000/svg" xmlns:xlink="http://www.w3.org/1999/xlink" version="1.1" width="1080" height="1080" viewBox="0 0 1080 1080" xml:space="preserve">
<desc>Created with Fabric.js 5.2.4</desc>
<defs>
</defs>
<g transform="matrix(1 0 0 1 540 540)" id="a6917c88-e0b9-41b3-9940-c15511cccc0d"  >
</g>
<g transform="matrix(1 0 0 1 540 540)" id="003983a7-d26a-4f8b-bc93-c1213c61531f"  >
<rect style="stroke: none; stroke-width: 1; stroke-dasharray: none; stroke-linecap: butt; stroke-dashoffset: 0; stroke-linejoin: miter; stroke-miterlimit: 4; fill: rgb(255,255,255); fill-rule: nonzero; opacity: 1; visibility: hidden;" vector-effect="non-scaling-stroke"  x="-540" y="-540" rx="0" ry="0" width="1080" height="1080" />
</g>
<g transform="matrix(1 0 0 1 544.03 540)"  >
<path style="stroke: none; stroke-width: 1; stroke-dasharray: none; stroke-linecap: butt; stroke-dashoffset: 0; stroke-linejoin: miter; stroke-miterlimit: 4; fill: rgb(0,0,0); fill-rule: nonzero; opacity: 1;" vector-effect="non-scaling-stroke"  transform=" translate(-36.67, -34.62)" d="M 53.7451 45.4219 C 51.8105 43.4639 49.0869 42.4707 45.6514 42.4707 L 43.2363 42.4707 C 43.1670436183269 42.47057859822795 43.1081903238492 42.42004199136209 43.0976 42.3516 L 42.9441 41.4321 C 48.4001 38.7433 52.2207 32.6727 52.2207 25.6196 C 52.2207 16.083 45.2451 8.3247 36.6699 8.3247 C 28.094699999999996 8.3247 21.1191 16.083 21.1191 25.62 C 21.1191 32.6712 24.9376 38.74 30.3913 41.43 L 30.2373 42.3528 C 30.22654693208341 42.421015961842336 30.167657986459357 42.47120106186225 30.0986 42.471000000000004 L 27.683600000000002 42.471000000000004 C 24.248 42.471000000000004 21.5244 43.464200000000005 19.589800000000004 45.422200000000004 C 16.746100000000006 48.3001 16.368100000000005 52.5628 16.395500000000006 54.835300000000004 L 16.395500000000006 59.91630000000001 C 16.39534069740821 60.18156529401189 16.500646380633004 60.43601177530126 16.688217302665876 60.623582697334136 C 16.875788224698752 60.81115361936701 17.130234705988123 60.916459302591804 17.395500000000006 60.91630000000001 L 55.9394 60.91630000000001 C 56.20467343209328 60.916485886651856 56.45913536302851 60.811188740538014 56.646712051783254 60.62361205178326 C 56.83428874053801 60.436035363028516 56.93958588665185 60.18157343209329 56.9394 59.91630000000001 L 56.9394 54.8467 C 56.9668 52.5625 56.5889 48.3 53.7451 45.4219 Z" stroke-linecap="round" />
</g>
<g transform="matrix(1 0 0 1 544.11 523.86)"  >
<path style="stroke: none; stroke-width: 1; stroke-dasharray: none; stroke-linecap: butt; stroke-dashoffset: 0; stroke-linejoin: miter; stroke-miterlimit: 4; fill: rgb(0,0,0); fill-rule: nonzero; opacity: 1;" vector-effect="non-scaling-stroke"  transform=" translate(-36.75, -18.48)" d="M 36.6675 19.0969 C 44.3268 19.0969 50.7722 20.5241 52.0485 28.641800000000003 C 52.210872776163114 27.64253586614698 52.293732593966034 26.63196709550943 52.296299999999995 25.619599999999995 C 52.296299999999995 16.083000000000002 45.320699999999995 8.324700000000004 36.74549999999999 8.324700000000004 C 28.17029999999999 8.324700000000004 21.1947 16.083 21.1947 25.62 C 21.197217215884493 26.632336043550946 21.280077376295928 27.64287555436365 21.442500000000006 28.642100000000003 C 22.7187 20.524 29.0082 19.0969 36.6675 19.0969 Z" stroke-linecap="round" />
</g>
<g transform="matrix(1 0 0 1 544.04 531.37)"  >
<path style="stroke: none; stroke-width: 1; stroke-dasharray: none; stroke-linecap: butt; stroke-dashoffset: 0; stroke-linejoin: miter; stroke-miterlimit: 4; fill: rgb(252,234,43); fill-rule: nonzero; opacity: 1;" vector-effect="non-scaling-stroke"  transform=" translate(-36.67, -26)" d="M 50.286 22.7772 C 47.934400000000004 19.9281 43.3494 18.4833 36.658 18.4833 C 30.2772 18.4833 25.7967 19.8933 23.3426 22.6752 C 22.04885224389127 24.085765539824703 21.37518938595244 25.956458849292485 21.4726 27.868000000000002 C 21.66165554098212 29.582489583876693 22.089636636972592 31.262100806049276 22.7441 32.858000000000004 L 22.8085 32.9615 L 22.615199999999998 33.1238 L 22.615199999999998 33.1238 L 22.847499999999997 33.028000000000006 C 22.881645122915533 33.069072207969285 22.91991193029254 33.10653480923679 22.961699999999997 33.13980000000001 L 23.014499999999998 33.18770000000001 C 23.06257164550224 33.21875787547769 23.113997647672544 33.24428637361964 23.1678 33.2638 L 23.1043 33.508900000000004 L 23.228299999999997 33.292100000000005 C 23.284961672863687 33.308457449817624 23.343306656490256 33.31828785821474 23.402199999999997 33.321400000000004 L 23.446099999999998 33.3205 C 23.52241116905675 33.32040197524469 23.598222395471343 33.308183068761124 23.670699999999997 33.2843 C 23.749799999999997 33.258900000000004 31.792799999999996 30.660800000000002 36.657999999999994 30.660800000000002 C 42.2508 30.660800000000002 49.74399999999999 32.88 49.819199999999995 32.902 C 50.20322335327129 33.015590392115534 50.60881074466946 32.807824752911564 50.74099999999999 32.4298 L 50.79279999999999 32.3112 C 51.322625059826066 30.87957840739063 51.67524639684855 29.388493896552692 51.8428 27.871199999999995 L 51.84279999999999 27.854599999999998 C 52.04784458288686 26.019716211852874 51.48431297960224 24.18179524415157 50.286 22.7772 Z" stroke-linecap="round" />
</g>
<g transform="matrix(1 0 0 1 548.11 530.32)"  >
<path style="stroke: none; stroke-width: 1; stroke-dasharray: none; stroke-linecap: butt; stroke-dashoffset: 0; stroke-linejoin: miter; stroke-miterlimit: 4; fill: rgb(0,0,0); fill-rule: nonzero; opacity: 1;" vector-effect="non-scaling-stroke"  transform=" translate(-40.75, -24.94)" d="M 42.7455 24.9444 C 42.7455 26.048969499661588 41.850069499661586 26.9444 40.7455 26.9444 C 39.64093050033841 26.9444 38.7455 26.048969499661588 38.7455 24.9444 C 38.7455 23.839830500338415 39.64093050033841 22.9444 40.7455 22.9444 C 41.84990943259943 22.944786340508116 42.745113659491885 23.83999056740057 42.7455 24.9444" stroke-linecap="round" />
</g>
<g transform="matrix(1 0 0 1 540.11 530.32)"  >
<path style="stroke: none; stroke-width: 1; stroke-dasharray: none; stroke-linecap: butt; stroke-dashoffset: 0; stroke-linejoin: miter; stroke-miterlimit: 4; fill: rgb(0,0,0); fill-rule: nonzero; opacity: 1;" vector-effect="non-scaling-stroke"  transform=" translate(-32.75, -24.94)" d="M 34.7455 24.9444 C 34.7455 26.048969499661588 33.850069499661586 26.9444 32.7455 26.9444 C 31.640930500338413 26.9444 30.7455 26.048969499661588 30.7455 24.9444 C 30.7455 23.839830500338415 31.640930500338413 22.9444 32.7455 22.9444 C 33.84990943259943 22.944786340508116 34.745113659491885 23.83999056740057 34.7455 24.9444" stroke-linecap="round" />
</g>
<g transform="matrix(1 0 0 1 544.03 531)"  >
<ellipse style="stroke: rgb(0,0,0); stroke-width: 2; stroke-dasharray: none; stroke-linecap: round; stroke-dashoffset: 0; stroke-linejoin: round; stroke-miterlimit: 4; fill: none; fill-rule: nonzero; opacity: 1;" vector-effect="non-scaling-stroke"  cx="0" cy="0" rx="14.5511" ry="16.2951" />
</g>
<g transform="matrix(1 0 0 1 544.11 536.48)"  >
<path style="stroke: rgb(0,0,0); stroke-width: 2; stroke-dasharray: none; stroke-linecap: round; stroke-dashoffset: 0; stroke-linejoin: round; stroke-miterlimit: 4; fill: none; fill-rule: nonzero; opacity: 1;" vector-effect="non-scaling-stroke"  transform=" translate(-36.75, -31.11)" d="M 23.4484 32.4355 C 23.4484 32.4355 31.6437 29.7749 36.6675 29.7749 C 42.4205 29.7749 50.0425 32.047599999999996 50.0425 32.047599999999996" stroke-linecap="round" />
</g>
<g transform="matrix(1 0 0 1 544.05 528.76)"  >
<path style="stroke: rgb(0,0,0); stroke-width: 2; stroke-dasharray: none; stroke-linecap: round; stroke-dashoffset: 0; stroke-linejoin: round; stroke-miterlimit: 4; fill: none; fill-rule: nonzero; opacity: 1;" vector-effect="non-scaling-stroke"  transform=" translate(-36.68, -23.37)" d="M 22.2285 27.6524 C 22.2285 27.6524 21.1585 19.096899999999998 36.667500000000004 19.096899999999998 C 52.754900000000006 19.096899999999998 51.1039 27.6524 51.1039 27.6524" stroke-linecap="round" />
</g>
</svg>